<?xml version="1.0" encoding="utf-8"?>
<!-- Svg Vector Icons : http://www.onlinewebfonts.com/icon -->
<!DOCTYPE svg PUBLIC "-//W3C//DTD SVG 1.1//EN" "http://www.w3.org/Graphics/SVG/1.1/DTD/svg11.dtd">
<svg version="1.1" xmlns="http://www.w3.org/2000/svg" xmlns:xlink="http://www.w3.org/1999/xlink" x="0px" y="0px" viewBox="0 0 1000 1000" enable-background="new 0 0 1000 1000" xml:space="preserve">
<metadata> Svg Vector Icons : http://www.onlinewebfonts.com/icon </metadata>
<g><path d="M500,990C229.4,990,10,770.6,10,500C10,229.4,229.4,10,500,10c270.6,0,490,219.4,490,490C990,770.6,770.6,990,500,990L500,990z M500,75.3C265.5,75.3,75.3,265.4,75.3,500c0,234.6,190.1,424.7,424.7,424.7S924.7,734.5,924.7,500C924.7,265.5,734.6,75.3,500,75.3L500,75.3z M655.8,653.9c-12,11.9-32.1,11.3-44.9-1.4L500.1,542.3L389.2,652.4c-12.8,12.7-33,13.4-44.9,1.5c-12-12-11.3-32,1.4-44.7L456.6,499L345.7,388.9c-12.8-12.7-13.4-32.8-1.4-44.6c12-12,32.1-11.3,44.9,1.4l110.8,110.2l110.8-110.2c12.8-12.7,33-13.4,44.9-1.4c12,11.9,11.3,31.9-1.4,44.7L543.5,499l110.8,110.2C667.2,622,667.8,641.9,655.8,653.9L655.8,653.9L655.8,653.9z"/></g>
</svg>